<svg width="24" height="24" viewBox="0 0 24 24" fill="none" xmlns="http://www.w3.org/2000/svg">
<g clip-path="url(#clip0)">
<rect width="33.6" height="24" rx="2" fill="white"/>
<mask id="mask0" mask-type="alpha" maskUnits="userSpaceOnUse" x="0" y="0" width="34" height="24">
<rect width="33.6" height="24" rx="2" fill="white"/>
</mask>
<g mask="url(#mask0)">
<path fill-rule="evenodd" clip-rule="evenodd" d="M33.6 0H0V1.6H33.6V0ZM33.6 3.2H0V4.8H33.6V3.2ZM0 6.4H33.6V8H0V6.4ZM33.6 9.6H0V11.2H33.6V9.6ZM0 12.8H33.6V14.4H0V12.8ZM33.6 16H0V17.6H33.6V16ZM0 19.2H33.6V20.8H0V19.2ZM33.6 22.4H0V24H33.6V22.4Z" fill="#D02F44"/>
<rect width="14.4" height="11.2" fill="#46467F"/>
<g filter="url(#filter0_d)">
<path fill-rule="evenodd" clip-rule="evenodd" d="M3.19961 2.39998C3.19961 2.8418 2.84144 3.19998 2.39961 3.19998C1.95778 3.19998 1.59961 2.8418 1.59961 2.39998C1.59961 1.95815 1.95778 1.59998 2.39961 1.59998C2.84144 1.59998 3.19961 1.95815 3.19961 2.39998ZM6.39958 2.39998C6.39958 2.8418 6.04141 3.19998 5.59958 3.19998C5.15775 3.19998 4.79958 2.8418 4.79958 2.39998C4.79958 1.95815 5.15775 1.59998 5.59958 1.59998C6.04141 1.59998 6.39958 1.95815 6.39958 2.39998ZM8.79964 3.19998C9.24147 3.19998 9.59964 2.8418 9.59964 2.39998C9.59964 1.95815 9.24147 1.59998 8.79964 1.59998C8.35781 1.59998 7.99964 1.95815 7.99964 2.39998C7.99964 2.8418 8.35781 3.19998 8.79964 3.19998ZM12.7996 2.39998C12.7996 2.8418 12.4414 3.19998 11.9996 3.19998C11.5578 3.19998 11.1996 2.8418 11.1996 2.39998C11.1996 1.95815 11.5578 1.59998 11.9996 1.59998C12.4414 1.59998 12.7996 1.95815 12.7996 2.39998ZM3.99964 4.79997C4.44147 4.79997 4.79964 4.4418 4.79964 3.99997C4.79964 3.55815 4.44147 3.19997 3.99964 3.19997C3.55781 3.19997 3.19964 3.55815 3.19964 3.99997C3.19964 4.4418 3.55781 4.79997 3.99964 4.79997ZM7.99961 3.99997C7.99961 4.4418 7.64144 4.79997 7.19961 4.79997C6.75778 4.79997 6.39961 4.4418 6.39961 3.99997C6.39961 3.55815 6.75778 3.19997 7.19961 3.19997C7.64144 3.19997 7.99961 3.55815 7.99961 3.99997ZM10.3996 4.79997C10.8414 4.79997 11.1996 4.4418 11.1996 3.99997C11.1996 3.55815 10.8414 3.19997 10.3996 3.19997C9.95775 3.19997 9.59958 3.55815 9.59958 3.99997C9.59958 4.4418 9.95775 4.79997 10.3996 4.79997ZM12.7996 5.59998C12.7996 6.0418 12.4414 6.39998 11.9996 6.39998C11.5578 6.39998 11.1996 6.0418 11.1996 5.59998C11.1996 5.15815 11.5578 4.79998 11.9996 4.79998C12.4414 4.79998 12.7996 5.15815 12.7996 5.59998ZM8.79964 6.39998C9.24147 6.39998 9.59964 6.0418 9.59964 5.59998C9.59964 5.15815 9.24147 4.79998 8.79964 4.79998C8.35781 4.79998 7.99964 5.15815 7.99964 5.59998C7.99964 6.0418 8.35781 6.39998 8.79964 6.39998ZM6.39958 5.59998C6.39958 6.0418 6.04141 6.39998 5.59958 6.39998C5.15775 6.39998 4.79958 6.0418 4.79958 5.59998C4.79958 5.15815 5.15775 4.79998 5.59958 4.79998C6.04141 4.79998 6.39958 5.15815 6.39958 5.59998ZM2.39961 6.39998C2.84144 6.39998 3.19961 6.0418 3.19961 5.59998C3.19961 5.15815 2.84144 4.79998 2.39961 4.79998C1.95778 4.79998 1.59961 5.15815 1.59961 5.59998C1.59961 6.0418 1.95778 6.39998 2.39961 6.39998ZM4.79964 7.19998C4.79964 7.6418 4.44147 7.99998 3.99964 7.99998C3.55781 7.99998 3.19964 7.6418 3.19964 7.19998C3.19964 6.75815 3.55781 6.39998 3.99964 6.39998C4.44147 6.39998 4.79964 6.75815 4.79964 7.19998ZM7.19961 7.99998C7.64144 7.99998 7.99961 7.6418 7.99961 7.19998C7.99961 6.75815 7.64144 6.39998 7.19961 6.39998C6.75778 6.39998 6.39961 6.75815 6.39961 7.19998C6.39961 7.6418 6.75778 7.99998 7.19961 7.99998ZM11.1996 7.19998C11.1996 7.6418 10.8414 7.99998 10.3996 7.99998C9.95775 7.99998 9.59958 7.6418 9.59958 7.19998C9.59958 6.75815 9.95775 6.39998 10.3996 6.39998C10.8414 6.39998 11.1996 6.75815 11.1996 7.19998ZM11.9996 9.59998C12.4414 9.59998 12.7996 9.2418 12.7996 8.79998C12.7996 8.35815 12.4414 7.99997 11.9996 7.99997C11.5578 7.99997 11.1996 8.35815 11.1996 8.79998C11.1996 9.2418 11.5578 9.59998 11.9996 9.59998ZM9.59964 8.79998C9.59964 9.2418 9.24147 9.59998 8.79964 9.59998C8.35781 9.59998 7.99964 9.2418 7.99964 8.79998C7.99964 8.35815 8.35781 7.99997 8.79964 7.99997C9.24147 7.99997 9.59964 8.35815 9.59964 8.79998ZM5.59958 9.59998C6.04141 9.59998 6.39958 9.2418 6.39958 8.79998C6.39958 8.35815 6.04141 7.99997 5.59958 7.99997C5.15775 7.99997 4.79958 8.35815 4.79958 8.79998C4.79958 9.2418 5.15775 9.59998 5.59958 9.59998ZM3.19961 8.79998C3.19961 9.2418 2.84144 9.59998 2.39961 9.59998C1.95778 9.59998 1.59961 9.2418 1.59961 8.79998C1.59961 8.35815 1.95778 7.99997 2.39961 7.99997C2.84144 7.99997 3.19961 8.35815 3.19961 8.79998Z" fill="url(#paint0_linear)"/>
</g>
</g>
</g>
<defs>
<filter id="filter0_d" x="1.59961" y="1.59998" width="11.2" height="9" filterUnits="userSpaceOnUse" color-interpolation-filters="sRGB">
<feFlood flood-opacity="0" result="BackgroundImageFix"/>
<feColorMatrix in="SourceAlpha" type="matrix" values="0 0 0 0 0 0 0 0 0 0 0 0 0 0 0 0 0 0 127 0"/>
<feOffset dy="1"/>
<feColorMatrix type="matrix" values="0 0 0 0 0 0 0 0 0 0 0 0 0 0 0 0 0 0 0.06 0"/>
<feBlend mode="normal" in2="BackgroundImageFix" result="effect1_dropShadow"/>
<feBlend mode="normal" in="SourceGraphic" in2="effect1_dropShadow" result="shape"/>
</filter>
<linearGradient id="paint0_linear" x1="1.59961" y1="1.59998" x2="1.59961" y2="9.59998" gradientUnits="userSpaceOnUse">
<stop stop-color="white"/>
<stop offset="1" stop-color="#F0F0F0"/>
</linearGradient>
<clipPath id="clip0">
<path d="M0 12C0 5.37258 5.37258 0 12 0C18.6274 0 24 5.37258 24 12C24 18.6274 18.6274 24 12 24C5.37258 24 0 18.6274 0 12Z" fill="white"/>
</clipPath>
</defs>
</svg>
