<svg width="15" height="15" viewBox="0 0 15 15" fill="none" xmlns="http://www.w3.org/2000/svg">
<g clip-path="url(#clip0_56_3462)">
<path d="M8.0932 9.59644L6.36137 7.88507L6.38182 7.86461C7.56819 6.54187 8.41363 5.02143 8.91138 3.41232H10.9091V2.04529H6.13637V0.681641H4.77272V2.04529H0V3.4021H7.6159C7.15567 4.718 6.43635 5.96573 5.45453 7.05666C4.82044 6.35098 4.29542 5.58393 3.87953 4.77255H2.51591C3.01363 5.88391 3.69547 6.93393 4.54772 7.88165L1.08067 11.3078L2.04546 12.2726L5.45456 8.86347L7.57503 10.9839L8.0932 9.59644Z" fill="white"/>
<path d="M11.9318 6.13623H10.5682L7.5 14.3181H8.86365L9.6307 12.2726H12.8693L13.6364 14.3181H15L11.9318 6.13623ZM10.1421 10.909L11.25 7.95327L12.358 10.909H10.1421Z" fill="white"/>
</g>
<defs>
<clipPath id="clip0_56_3462">
<rect width="15" height="15" fill="white"/>
</clipPath>
</defs>
</svg>
