<svg width="48" height="48" viewBox="0 0 48 48" fill="none" xmlns="http://www.w3.org/2000/svg">
<g clip-path="url(#clip0_56_3549)">
<path d="M19.0002 19V21C19.0002 22.3261 19.527 23.5979 20.4646 24.5355C21.4023 25.4732 22.6741 26 24.0002 26C25.3263 26 26.598 25.4732 27.5357 24.5355C28.4734 23.5979 29.0002 22.3261 29.0002 21V19C29.0002 17.6739 28.4734 16.4021 27.5357 15.4645C26.598 14.5268 25.3263 14 24.0002 14C22.6741 14 21.4023 14.5268 20.4646 15.4645C19.527 16.4021 19.0002 17.6739 19.0002 19ZM21.0002 19C21.0002 18.2044 21.3163 17.4413 21.8789 16.8787C22.4415 16.3161 23.2045 16 24.0002 16C24.7958 16 25.5589 16.3161 26.1215 16.8787C26.6841 17.4413 27.0002 18.2044 27.0002 19V21C27.0002 21.7956 26.6841 22.5587 26.1215 23.1213C25.5589 23.6839 24.7958 24 24.0002 24C23.2045 24 22.4415 23.6839 21.8789 23.1213C21.3163 22.5587 21.0002 21.7956 21.0002 21V19Z" fill="white"/>
<path d="M26.0002 28H22.0002C19.614 28.0026 17.3264 28.9517 15.6391 30.639C13.9519 32.3262 13.0028 34.6139 13.0002 37V41C13.0016 42.1522 13.4003 43.2687 14.1289 44.1613C14.8575 45.0538 15.8716 45.6679 17.0002 45.9V47C17.0002 47.2652 17.1055 47.5196 17.2931 47.7071C17.4806 47.8946 17.735 48 18.0002 48C18.2654 48 18.5198 47.8946 18.7073 47.7071C18.8948 47.5196 19.0002 47.2652 19.0002 47V37C19.0002 36.7348 18.8948 36.4804 18.7073 36.2929C18.5198 36.1054 18.2654 36 18.0002 36C17.735 36 17.4806 36.1054 17.2931 36.2929C17.1055 36.4804 17.0002 36.7348 17.0002 37V43.816C16.4173 43.6099 15.9123 43.2288 15.5543 42.7247C15.1963 42.2206 15.0027 41.6183 15.0002 41V37C15.0026 35.1442 15.7408 33.3651 17.0531 32.0529C18.3653 30.7406 20.1444 30.0024 22.0002 30H26.0002C27.856 30.0024 29.6351 30.7406 30.9473 32.0529C32.2595 33.3651 32.9978 35.1442 33.0002 37V41C32.9976 41.6183 32.8041 42.2206 32.4461 42.7247C32.0881 43.2288 31.5831 43.6099 31.0002 43.816V37C31.0002 36.7348 30.8948 36.4804 30.7073 36.2929C30.5198 36.1054 30.2654 36 30.0002 36C29.735 36 29.4806 36.1054 29.2931 36.2929C29.1055 36.4804 29.0002 36.7348 29.0002 37V47C29.0002 47.2652 29.1055 47.5196 29.2931 47.7071C29.4806 47.8946 29.735 48 30.0002 48C30.2654 48 30.5198 47.8946 30.7073 47.7071C30.8948 47.5196 31.0002 47.2652 31.0002 47V45.9C32.1288 45.6679 33.1428 45.0538 33.8715 44.1613C34.6001 43.2687 34.9987 42.1522 35.0002 41V37C34.9975 34.6139 34.0485 32.3262 32.3612 30.639C30.674 28.9517 28.3863 28.0026 26.0002 28Z" fill="white"/>
<path d="M11 24C12.3256 23.9984 13.5964 23.4711 14.5338 22.5338C15.4711 21.5964 15.9984 20.3256 16 19V17C16 15.6739 15.4732 14.4021 14.5355 13.4645C13.5979 12.5268 12.3261 12 11 12C9.67392 12 8.40215 12.5268 7.46447 13.4645C6.52678 14.4021 6 15.6739 6 17V19C6.00159 20.3256 6.52888 21.5964 7.46622 22.5338C8.40356 23.4711 9.67441 23.9984 11 24ZM8 17C8 16.2044 8.31607 15.4413 8.87868 14.8787C9.44129 14.3161 10.2044 14 11 14C11.7957 14 12.5587 14.3161 13.1213 14.8787C13.6839 15.4413 14 16.2044 14 17V19C14 19.7956 13.6839 20.5587 13.1213 21.1213C12.5587 21.6839 11.7957 22 11 22C10.2044 22 9.44129 21.6839 8.87868 21.1213C8.31607 20.5587 8 19.7956 8 19V17Z" fill="white"/>
<path d="M9 28H13C13.9059 27.9984 14.8033 28.1737 15.642 28.516C15.8873 28.6148 16.1618 28.6124 16.4054 28.5093C16.649 28.4062 16.8418 28.2108 16.9416 27.9659C17.0415 27.721 17.0402 27.4465 16.9381 27.2025C16.8361 26.9585 16.6415 26.7649 16.397 26.664C15.3187 26.2237 14.1648 25.9981 13 26H9C6.61386 26.0027 4.32622 26.9517 2.63896 28.639C0.951708 30.3262 0.00264685 32.6139 0 35L0 39C0.00145452 40.1522 0.40009 41.2687 1.12872 42.1613C1.85735 43.0538 2.87141 43.6679 4 43.9V47C4 47.2652 4.10536 47.5196 4.29289 47.7071C4.48043 47.8947 4.73478 48 5 48C5.26522 48 5.51957 47.8947 5.70711 47.7071C5.89464 47.5196 6 47.2652 6 47V35C6 34.7348 5.89464 34.4804 5.70711 34.2929C5.51957 34.1054 5.26522 34 5 34C4.73478 34 4.48043 34.1054 4.29289 34.2929C4.10536 34.4804 4 34.7348 4 35V41.816C3.41709 41.6099 2.91209 41.2288 2.55409 40.7247C2.19608 40.2206 2.00256 39.6183 2 39V35C2.00238 33.1442 2.74064 31.3651 4.05288 30.0529C5.36512 28.7407 7.14422 28.0024 9 28Z" fill="white"/>
<path d="M17 12C18.3256 11.9984 19.5964 11.4711 20.5338 10.5338C21.4711 9.59644 21.9984 8.32559 22 7V5C22 3.67392 21.4732 2.40215 20.5355 1.46447C19.5979 0.526784 18.3261 0 17 0C15.6739 0 14.4021 0.526784 13.4645 1.46447C12.5268 2.40215 12 3.67392 12 5V7C12.0016 8.32559 12.5289 9.59644 13.4662 10.5338C14.4036 11.4711 15.6744 11.9984 17 12ZM14 5C14 4.20435 14.3161 3.44129 14.8787 2.87868C15.4413 2.31607 16.2044 2 17 2C17.7957 2 18.5587 2.31607 19.1213 2.87868C19.6839 3.44129 20 4.20435 20 5V7C20 7.79565 19.6839 8.55871 19.1213 9.12132C18.5587 9.68393 17.7957 10 17 10C16.2044 10 15.4413 9.68393 14.8787 9.12132C14.3161 8.55871 14 7.79565 14 7V5Z" fill="white"/>
<path d="M30.9998 12C32.3254 11.9984 33.5963 11.4711 34.5336 10.5338C35.4709 9.59644 35.9982 8.32559 35.9998 7V5C35.9998 3.67392 35.473 2.40215 34.5354 1.46447C33.5977 0.526784 32.3259 0 30.9998 0C29.6737 0 28.402 0.526784 27.4643 1.46447C26.5266 2.40215 25.9998 3.67392 25.9998 5V7C26.0014 8.32559 26.5287 9.59644 27.466 10.5338C28.4034 11.4711 29.6742 11.9984 30.9998 12ZM27.9998 5C27.9998 4.20435 28.3159 3.44129 28.8785 2.87868C29.4411 2.31607 30.2042 2 30.9998 2C31.7955 2 32.5585 2.31607 33.1211 2.87868C33.6837 3.44129 33.9998 4.20435 33.9998 5V7C33.9998 7.79565 33.6837 8.55871 33.1211 9.12132C32.5585 9.68393 31.7955 10 30.9998 10C30.2042 10 29.4411 9.68393 28.8785 9.12132C28.3159 8.55871 27.9998 7.79565 27.9998 7V5Z" fill="white"/>
<path d="M31.9998 17V19C31.9998 20.3261 32.5266 21.5979 33.4643 22.5355C34.402 23.4732 35.6737 24 36.9998 24C38.3259 24 39.5977 23.4732 40.5354 22.5355C41.473 21.5979 41.9998 20.3261 41.9998 19V17C41.9998 15.6739 41.473 14.4021 40.5354 13.4645C39.5977 12.5268 38.3259 12 36.9998 12C35.6737 12 34.402 12.5268 33.4643 13.4645C32.5266 14.4021 31.9998 15.6739 31.9998 17ZM33.9998 17C33.9998 16.2044 34.3159 15.4413 34.8785 14.8787C35.4411 14.3161 36.2042 14 36.9998 14C37.7955 14 38.5585 14.3161 39.1211 14.8787C39.6837 15.4413 39.9998 16.2044 39.9998 17V19C39.9998 19.7956 39.6837 20.5587 39.1211 21.1213C38.5585 21.6839 37.7955 22 36.9998 22C36.2042 22 35.4411 21.6839 34.8785 21.1213C34.3159 20.5587 33.9998 19.7956 33.9998 19V17Z" fill="white"/>
<path d="M39 26H35C33.8343 25.9977 32.6793 26.2233 31.6 26.664C31.3556 26.7649 31.161 26.9585 31.0589 27.2025C30.9568 27.4465 30.9556 27.721 31.0554 27.9659C31.1553 28.2108 31.3481 28.4062 31.5917 28.5093C31.8352 28.6124 32.1097 28.6148 32.355 28.516C33.1947 28.1733 34.0932 27.998 35 28H39C40.8558 28.0024 42.6349 28.7407 43.9472 30.0529C45.2594 31.3651 45.9977 33.1442 46 35V39C45.9975 39.6183 45.804 40.2206 45.446 40.7247C45.088 41.2288 44.583 41.6099 44 41.816V35C44 34.7348 43.8947 34.4804 43.7072 34.2929C43.5196 34.1054 43.2653 34 43 34C42.7348 34 42.4805 34.1054 42.2929 34.2929C42.1054 34.4804 42 34.7348 42 35V47C42 47.2652 42.1054 47.5196 42.2929 47.7071C42.4805 47.8947 42.7348 48 43 48C43.2653 48 43.5196 47.8947 43.7072 47.7071C43.8947 47.5196 44 47.2652 44 47V43.9C45.1286 43.6679 46.1427 43.0538 46.8713 42.1613C47.6 41.2687 47.9986 40.1522 48 39V35C47.9974 32.6139 47.0483 30.3262 45.3611 28.639C43.6738 26.9517 41.3862 26.0027 39 26Z" fill="white"/>
</g>
<defs>
<clipPath id="clip0_56_3549">
<rect width="48" height="48" fill="white"/>
</clipPath>
</defs>
</svg>
