<svg width="48" height="48" viewBox="0 0 48 48" fill="none" xmlns="http://www.w3.org/2000/svg">
<g clip-path="url(#clip0_56_3562)">
<path fill-rule="evenodd" clip-rule="evenodd" d="M14.4858 46.5453C13.7245 46.5453 13.1043 45.9245 13.1043 45.1613C13.1043 44.3993 13.7245 43.7786 14.4858 43.7786C15.2472 43.7786 15.8735 44.3994 15.8735 45.1613C15.8735 45.9246 15.2472 46.5453 14.4858 46.5453ZM14.4858 1.45461C15.2472 1.45461 15.8735 2.07415 15.8735 2.8373C15.8735 3.59932 15.2472 4.22011 14.4858 4.22011C13.7245 4.22011 13.1043 3.59932 13.1043 2.8373C13.1043 2.07415 13.7245 1.45461 14.4858 1.45461ZM14.4858 42.324C13.6937 42.324 12.9816 42.6507 12.4657 43.1756L3.42756 38.037V9.96166L12.4657 4.82428C12.9815 5.34861 13.6937 5.67472 14.4858 5.67472C16.0516 5.67472 17.3226 4.40126 17.3226 2.83742C17.3226 1.27233 16.0516 0.000113014 14.4858 0.000113014C12.6047 0.000113014 11.2711 1.79553 11.7412 3.55952L2.34078 8.90564C2.11361 9.0358 1.97238 9.2771 1.97238 9.53808V38.4608C1.97238 38.7223 2.11361 38.9643 2.34078 39.0932L11.7412 44.4393C11.2711 46.2033 12.605 48 14.4858 48C16.0516 48 17.3226 46.7265 17.3226 45.1615C17.3226 43.5975 16.0515 42.324 14.4858 42.324ZM33.5077 46.5453C32.7464 46.5453 32.1261 45.9245 32.1261 45.1613C32.1261 44.3993 32.7463 43.7786 33.5077 43.7786C34.2692 43.7786 34.8893 44.3994 34.8893 45.1613C34.8893 45.9246 34.2691 46.5453 33.5077 46.5453ZM33.5077 4.22011C32.7464 4.22011 32.1261 3.59932 32.1261 2.8373C32.1261 2.07415 32.7463 1.45461 33.5077 1.45461C34.2692 1.45461 34.8893 2.07415 34.8893 2.8373C34.8893 3.59932 34.2691 4.22011 33.5077 4.22011ZM45.6528 8.90553L36.2523 3.55941C36.7226 1.7961 35.3892 0 33.5077 0C31.9421 0 30.671 1.27222 30.671 2.8373C30.671 4.40115 31.9419 5.67461 33.5077 5.67461C34.2998 5.67461 35.0182 5.34861 35.5339 4.82416L44.5721 9.96155V38.037L35.5339 43.1756C35.0182 42.6506 34.2998 42.324 33.5077 42.324C31.9421 42.324 30.671 43.5975 30.671 45.1613C30.671 46.7264 31.9419 47.9999 33.5077 47.9999C35.3888 47.9999 36.7226 46.2027 36.2523 44.4392L45.6528 39.0931C45.8861 38.9642 46.0273 38.7222 46.0273 38.4607V9.53797C46.0273 9.27699 45.886 9.03568 45.6528 8.90553ZM23.9968 38.4165L9.51241 31.2609L15.2226 28.4413L23.6774 32.6172C23.8771 32.7183 24.1195 32.7168 24.3222 32.6172L32.7709 28.4413L38.4811 31.2609L23.9968 38.4165ZM9.51241 23.9996L15.2226 21.1801L23.6774 25.3553C23.8794 25.4569 24.1178 25.4551 24.3222 25.3553L32.7709 21.1801L38.4811 23.9996L23.9968 31.154L9.51241 23.9996ZM9.51241 16.7377L23.9968 9.58331L38.4811 16.7377L23.9968 23.8922L9.51241 16.7377ZM40.8512 31.2609C40.8512 31.5384 40.6915 31.7902 40.4459 31.9136L24.3222 39.8797C24.1183 39.9779 23.8789 39.9799 23.6774 39.8784L7.54748 31.9136C7.00992 31.6458 7.00856 30.8767 7.54748 30.6094L13.577 27.6303L7.54748 24.6517C7.00958 24.3844 7.00845 23.6155 7.54748 23.3469L13.577 20.3684L7.54748 17.3893C7.00924 17.1224 7.00924 16.3532 7.54748 16.0864L23.6774 8.12033C23.8801 8.01969 24.1196 8.01969 24.3222 8.12033L40.4459 16.0864C40.9842 16.3533 40.9842 17.1224 40.4459 17.3893L34.4164 20.3684L40.4459 23.3469C40.985 23.6155 40.9838 24.3844 40.4459 24.6517L34.4164 27.6303L40.4459 30.6094C40.6915 30.7316 40.8512 30.9845 40.8512 31.2609Z" fill="white"/>
</g>
<defs>
<clipPath id="clip0_56_3562">
<rect width="48" height="48" fill="white"/>
</clipPath>
</defs>
</svg>
