<svg width="48" height="48" viewBox="0 0 48 48" fill="none" xmlns="http://www.w3.org/2000/svg">
<g clip-path="url(#clip0_56_3568)">
<path d="M14.9439 9.31073C14.9439 5.25125 18.2349 1.96038 22.2943 1.96038C26.3537 1.96038 29.6447 5.25125 29.6447 9.31073C29.6447 10.5947 29.3163 11.7992 28.7396 12.8474C28.4788 13.3217 28.6517 13.9177 29.126 14.1785C29.6003 14.4393 30.1963 14.2664 30.4571 13.7921C31.1889 12.4617 31.6048 10.9333 31.6048 9.31073C31.6048 4.16869 27.4364 0.000244141 22.2943 0.000244141C17.1522 0.000244141 12.9838 4.16869 12.9838 9.31073C12.9838 10.9333 13.3997 12.4617 14.1315 13.7921C14.3923 14.2664 14.9884 14.4393 15.4626 14.1785C15.9368 13.9177 16.1098 13.3217 15.849 12.8474C15.2723 11.7992 14.9439 10.5947 14.9439 9.31073Z" fill="white"/>
<path d="M36.2025 3.06293C36.0049 2.55902 35.4362 2.31072 34.9323 2.50836C34.4283 2.70598 34.18 3.27468 34.3777 3.77859C35.5183 6.68681 35.7424 9.9187 35.0137 12.9791C34.4398 15.3896 33.3012 17.5831 31.7261 19.3603C31.367 19.7654 31.4043 20.3848 31.8094 20.7437C32.2144 21.1028 32.8339 21.0655 33.1929 20.6604C34.9873 18.6358 36.2737 16.1497 36.9206 13.4332C37.7413 9.98613 37.49 6.3459 36.2025 3.06293Z" fill="white"/>
<path d="M9.456 4.4499C9.62964 3.93722 9.35468 3.38088 8.842 3.2073C8.3293 3.03372 7.77298 3.30863 7.59939 3.82131C6.46644 7.16761 6.3842 10.8164 7.36438 14.2165C8.34026 17.6016 9.9681 20.3062 13.0531 22.6856C13.4283 22.9749 13.7939 23.2409 14.1544 23.4849C14.6028 23.7882 15.2121 23.6705 15.5154 23.2221C15.8186 22.7738 15.701 22.1646 15.2526 21.8613C14.9305 21.6433 14.5979 21.4017 14.2502 21.1335C11.5325 19.0375 10.1218 16.7052 9.24781 13.6735C8.37814 10.6569 8.45153 7.41677 9.456 4.4499Z" fill="white"/>
<path fill-rule="evenodd" clip-rule="evenodd" d="M26.6371 12.4557V21.1697L39.5254 28.035C40.6262 28.6214 41.3141 29.7671 41.3141 31.0144V45.8224C41.3141 47.0253 40.339 48.0004 39.1361 48.0004H20.1234C18.9205 48.0004 17.9454 47.0253 17.9454 45.8224V42.6721L14.7845 40.0817C12.266 38.0178 11.9525 34.2802 14.092 31.8255L17.9519 27.397V12.4557C17.9519 10.0573 19.8961 8.11304 22.2945 8.11304C24.693 8.11304 26.6371 10.0573 26.6371 12.4557ZM24.677 28.5057V26.3456H24.6739V20.1239L24.677 20.1256V12.4557C24.677 11.1398 23.6103 10.0732 22.2945 10.0732C20.9788 10.0732 19.9121 11.1398 19.9121 12.4557V33.5891C19.9121 34.1305 19.4732 34.5691 18.932 34.5691C18.3907 34.5691 17.9519 34.1305 17.9519 33.5891V32.9624H17.9454V30.3877L15.5696 33.1134C14.1567 34.7345 14.3637 37.2027 16.0269 38.5656L19.9055 41.7442V45.8224C19.9055 45.9428 20.003 46.0403 20.1234 46.0403H39.1361C39.2565 46.0403 39.354 45.9428 39.354 45.8224V31.0144C39.354 30.4913 39.0656 30.0109 38.6039 29.765L26.6371 23.3905V28.5057C26.6371 29.0469 26.1983 29.4857 25.6571 29.4857C25.1158 29.4857 24.677 29.0469 24.677 28.5057Z" fill="white"/>
</g>
<defs>
<clipPath id="clip0_56_3568">
<rect width="48" height="48" fill="white"/>
</clipPath>
</defs>
</svg>
