<svg width="64" height="64" viewBox="0 0 64 64" fill="none" xmlns="http://www.w3.org/2000/svg">
<path fill-rule="evenodd" clip-rule="evenodd" d="M44.0475 38.8892C46.1147 34.1057 46.7017 28.4732 46.7905 22.9682C41.571 22.4921 35.991 20.5984 32.0109 17.0605C28.3344 20.5569 22.0824 22.5009 17.2109 22.9664C17.2997 28.472 17.8867 34.1054 19.954 38.8894C22.0552 43.7515 25.7148 47.7644 32.0008 49.902C38.2869 47.7644 41.9464 43.7514 44.0475 38.8892ZM36.1622 29.1772C38.4604 31.4755 38.4604 35.202 36.1622 37.5002C33.8639 39.7985 30.1373 39.7985 27.8391 37.5002C25.5409 35.202 25.5409 31.4754 27.8391 29.1772C30.1374 26.879 33.864 26.879 36.1622 29.1772ZM32.0007 25.7667C36.1823 25.7667 39.5727 29.157 39.5727 33.3386C39.5727 37.5202 36.1824 40.9106 32.0007 40.9106C27.8189 40.9106 24.4286 37.5204 24.4286 33.3386C24.4286 29.1569 27.819 25.7667 32.0007 25.7667ZM28.6888 33.8867C28.3485 33.5701 28.3294 33.0376 28.6459 32.6974C28.9625 32.3571 29.495 32.338 29.8353 32.6545L31.2267 33.951L34.1365 30.9631C34.4604 30.6301 34.9929 30.6227 35.3258 30.9466C35.6588 31.2705 35.6662 31.803 35.3423 32.1359L31.871 35.7006C31.5544 36.0409 31.0219 36.06 30.6817 35.7435L28.6888 33.8866V33.8867ZM44.8067 59.139C40.821 61.0244 36.4869 62 32.0008 62C23.7164 62 16.2164 58.6421 10.7875 53.2132C-1.9576 40.4682 -0.649974 19.5042 13.4742 8.401C13.8399 8.1135 13.9033 7.584 13.6158 7.21825L12.7604 6.01912L19.5494 7.22037L18.4716 14.0301L17.5453 12.7307C17.2659 12.3304 16.7071 12.2386 16.3226 12.5484C13.4329 14.8806 11.0729 17.8456 9.4524 21.2336C4.86253 30.8296 6.88603 42.2189 14.334 49.6667C21.6874 57.0201 32.8593 59.068 42.3563 54.7419L41.6474 57.3676L41.6493 57.3681C41.5314 57.8086 41.787 58.2646 42.2271 58.3921L44.8067 59.139ZM49.2807 57.4502L50.1108 58.9251L43.4892 57.008L45.2858 50.3527L45.9667 51.5625C46.2208 52.015 46.8165 52.1456 47.2562 51.7845C50.263 49.4629 52.7262 46.4709 54.4212 43.0325C59.1692 33.4009 57.1944 21.8602 49.6673 14.3332C42.0884 6.75437 30.4733 4.83562 20.8703 9.62862L21.3298 6.72525C21.4277 6.2235 21.1243 5.78687 20.6539 5.70425L18.3224 5.29175C22.5324 3.13012 27.1843 2.00012 32.0005 2.00012C48.5693 2.00012 62.0005 15.4314 62.0005 32.0001C62.0005 36.9257 60.8172 41.5697 58.72 45.663C56.5493 49.8999 53.3992 53.5532 49.5684 56.3247C49.1895 56.5614 49.0597 57.0566 49.2804 57.4505L49.2807 57.4502Z" fill="url(#paint0_linear_56_3509)"/>
<defs>
<linearGradient id="paint0_linear_56_3509" x1="7.60203" y1="60.0313" x2="71.9115" y2="47.8954" gradientUnits="userSpaceOnUse">
<stop offset="0.584025" stop-color="#CD0A45"/>
<stop offset="1" stop-color="#FD2B77"/>
</linearGradient>
</defs>
</svg>
