<svg width="24" height="24" viewBox="0 0 24 24" fill="none" xmlns="http://www.w3.org/2000/svg">
<path fill-rule="evenodd" clip-rule="evenodd" d="M6.4 9.5C6.4 6.71353 8.28739 4.38302 10.8 3.80893C10.9317 3.77885 11.0651 3.75358 11.2 3.73333V3.70388V2.83333C11.2 2.3725 11.5584 2 12 2C12.4416 2 12.8 2.3725 12.8 2.83333V3.70388V3.73333C12.9349 3.75359 13.0683 3.77886 13.2 3.80896C15.7119 4.38308 17.6 6.71357 17.6 9.5V11.8233C17.6 13.4725 18.2936 15.0292 19.5032 16.0942C19.8216 16.3783 20 16.7817 20 17.2083C20 18.0125 19.372 18.6667 18.6 18.6667H5.4C4.628 18.6667 4 18.0125 4 17.2083C4 16.7817 4.1784 16.3783 4.4896 16.1008C5.7064 15.0292 6.4 13.4725 6.4 11.8233V9.5ZM11.4968 5.71118L12.0001 5.63565L12.5031 5.71117C14.1927 5.96482 15.6 7.51612 15.6 9.5V11.8233C15.6 13.598 16.2001 15.3083 17.2933 16.6667H6.70574C7.80016 15.3063 8.4 13.5978 8.4 11.8233V9.5C8.4 7.51587 9.80675 5.96484 11.4968 5.71118ZM14.94 19.5C14.6616 20.9242 13.4496 22 12.0008 22C10.552 22 9.34005 20.9242 9.06165 19.5H14.94Z" fill="white"/>
</svg>
