<svg width="64" height="64" viewBox="0 0 64 64" fill="none" xmlns="http://www.w3.org/2000/svg">
<path d="M46 1.5H36C35.1716 1.5 34.5 2.17157 34.5 3V6C34.5 6.82843 35.1716 7.5 36 7.5H46C46.8284 7.5 47.5 6.82843 47.5 6V3C47.5 2.17157 46.8284 1.5 46 1.5Z" fill="url(#paint0_linear_56_3524)"/>
<path d="M17 23.5H7C6.60218 23.5 6.22064 23.658 5.93934 23.9393C5.65804 24.2206 5.5 24.6022 5.5 25C5.5 25.3978 5.65804 25.7794 5.93934 26.0607C6.22064 26.342 6.60218 26.5 7 26.5H17C17.3978 26.5 17.7794 26.342 18.0607 26.0607C18.342 25.7794 18.5 25.3978 18.5 25C18.5 24.6022 18.342 24.2206 18.0607 23.9393C17.7794 23.658 17.3978 23.5 17 23.5Z" fill="url(#paint1_linear_56_3524)"/>
<path d="M16.5 37C16.5 36.6022 16.342 36.2206 16.0607 35.9393C15.7794 35.658 15.3978 35.5 15 35.5H5C4.60218 35.5 4.22064 35.658 3.93934 35.9393C3.65804 36.2206 3.5 36.6022 3.5 37C3.5 37.3978 3.65804 37.7794 3.93934 38.0607C4.22064 38.342 4.60218 38.5 5 38.5H15C15.3978 38.5 15.7794 38.342 16.0607 38.0607C16.342 37.7794 16.5 37.3978 16.5 37Z" fill="url(#paint2_linear_56_3524)"/>
<path d="M16 41.5H9C8.60218 41.5 8.22064 41.658 7.93934 41.9393C7.65804 42.2206 7.5 42.6022 7.5 43C7.5 43.3978 7.65804 43.7794 7.93934 44.0607C8.22064 44.342 8.60218 44.5 9 44.5H16C16.3978 44.5 16.7794 44.342 17.0607 44.0607C17.342 43.7794 17.5 43.3978 17.5 43C17.5 42.6022 17.342 42.2206 17.0607 41.9393C16.7794 41.658 16.3978 41.5 16 41.5Z" fill="url(#paint3_linear_56_3524)"/>
<path d="M16.5 31C16.5 30.6022 16.342 30.2206 16.0607 29.9393C15.7794 29.658 15.3978 29.5 15 29.5H2C1.60218 29.5 1.22064 29.658 0.93934 29.9393C0.658035 30.2206 0.5 30.6022 0.5 31C0.5 31.3978 0.658035 31.7794 0.93934 32.0607C1.22064 32.342 1.60218 32.5 2 32.5H15C15.3978 32.5 15.7794 32.342 16.0607 32.0607C16.342 31.7794 16.5 31.3978 16.5 31Z" fill="url(#paint4_linear_56_3524)"/>
<path d="M41 34V17C31.6261 17 24 24.6261 24 34C24 43.3739 31.6261 51 41 51C50.3739 51 58 43.3739 58 34H41Z" fill="url(#paint5_linear_56_3524)"/>
<path d="M57.4523 18.6691L59.0606 17.0606C59.2018 16.9218 59.314 16.7563 59.3909 16.5738C59.4678 16.3914 59.5078 16.1955 59.5086 15.9975C59.5094 15.7995 59.471 15.6033 59.3956 15.4202C59.3202 15.2371 59.2093 15.0707 59.0693 14.9307C58.9293 14.7907 58.7629 14.6798 58.5798 14.6044C58.3968 14.529 58.2005 14.4906 58.0025 14.4914C57.8045 14.4922 57.6086 14.5322 57.4262 14.6091C57.2437 14.686 57.0783 14.7982 56.9394 14.9394L55.2654 16.6133C52.0416 13.9575 48.1397 12.2558 44 11.7V9H38V11.7C33.8604 12.2555 29.9585 13.9571 26.7346 16.6125L25.0606 14.9386C24.9218 14.7975 24.7563 14.6852 24.5738 14.6083C24.3914 14.5314 24.1955 14.4914 23.9975 14.4906C23.7995 14.4898 23.6033 14.5282 23.4202 14.6036C23.2371 14.679 23.0707 14.7899 22.9307 14.93C22.7907 15.07 22.6798 15.2363 22.6044 15.4194C22.529 15.6025 22.4906 15.7987 22.4914 15.9967C22.4922 16.1947 22.5322 16.3906 22.6091 16.5731C22.686 16.7556 22.7982 16.921 22.9394 17.0599L24.5478 18.6684C20.658 22.8255 18.4958 28.3069 18.5 34C18.5 46.4065 28.5935 56.5 41 56.5C53.4065 56.5 63.5 46.4065 63.5 34C63.504 28.3072 61.3418 22.8261 57.4523 18.6691ZM41 52.5C37.3411 52.5 33.7643 51.415 30.722 49.3822C27.6796 47.3494 25.3085 44.4601 23.9082 41.0796C22.508 37.6992 22.1417 33.9795 22.8555 30.3908C23.5693 26.8022 25.3313 23.5058 27.9185 20.9185C30.5058 18.3313 33.8022 16.5693 37.3908 15.8555C40.9795 15.1416 44.6992 15.508 48.0796 16.9082C51.4601 18.3084 54.3494 20.6796 56.3822 23.722C58.415 26.7643 59.5 30.341 59.5 34C59.5 36.4295 59.0215 38.8351 58.0918 41.0796C57.1621 43.3242 55.7994 45.3636 54.0815 47.0815C52.3636 48.7994 50.3242 50.1621 48.0796 51.0918C45.8351 52.0215 43.4295 52.5 41 52.5Z" fill="url(#paint6_linear_56_3524)"/>
<defs>
<linearGradient id="paint0_linear_56_3524" x1="35.7139" y1="7.30313" x2="48.0768" y2="2.24838" gradientUnits="userSpaceOnUse">
<stop offset="0.584025" stop-color="#CD0A45"/>
<stop offset="1" stop-color="#FD2B77"/>
</linearGradient>
<linearGradient id="paint1_linear_56_3524" x1="6.71391" y1="26.4016" x2="15.3612" y2="19.3304" gradientUnits="userSpaceOnUse">
<stop offset="0.584025" stop-color="#CD0A45"/>
<stop offset="1" stop-color="#FD2B77"/>
</linearGradient>
<linearGradient id="paint2_linear_56_3524" x1="4.71391" y1="38.4016" x2="13.3612" y2="31.3304" gradientUnits="userSpaceOnUse">
<stop offset="0.584025" stop-color="#CD0A45"/>
<stop offset="1" stop-color="#FD2B77"/>
</linearGradient>
<linearGradient id="paint3_linear_56_3524" x1="8.43377" y1="44.4016" x2="16.3867" y2="39.399" gradientUnits="userSpaceOnUse">
<stop offset="0.584025" stop-color="#CD0A45"/>
<stop offset="1" stop-color="#FD2B77"/>
</linearGradient>
<linearGradient id="paint4_linear_56_3524" x1="1.99404" y1="32.4016" x2="10.8169" y2="23.522" gradientUnits="userSpaceOnUse">
<stop offset="0.584025" stop-color="#CD0A45"/>
<stop offset="1" stop-color="#FD2B77"/>
</linearGradient>
<linearGradient id="paint5_linear_56_3524" x1="27.1748" y1="49.8844" x2="63.6161" y2="43.0077" gradientUnits="userSpaceOnUse">
<stop offset="0.584025" stop-color="#CD0A45"/>
<stop offset="1" stop-color="#FD2B77"/>
</linearGradient>
<linearGradient id="paint6_linear_56_3524" x1="22.702" y1="54.9414" x2="71.1037" y2="46.2884" gradientUnits="userSpaceOnUse">
<stop offset="0.584025" stop-color="#CD0A45"/>
<stop offset="1" stop-color="#FD2B77"/>
</linearGradient>
</defs>
</svg>
