<svg width="64" height="64" viewBox="0 0 64 64" fill="none" xmlns="http://www.w3.org/2000/svg">
<path fill-rule="evenodd" clip-rule="evenodd" d="M29.6861 16.0024C22.0935 16.0024 16.0024 22.0908 16.0024 29.6861C16.0024 37.2787 22.0908 43.3698 29.6861 43.3698C30.6763 43.3698 31.6394 43.261 32.5697 43.0651L26.8649 31.0215C25.608 28.3718 28.3721 25.6078 31.0218 26.8646L43.0654 32.5694C43.264 31.6391 43.3701 30.6787 43.3701 29.6857C43.3701 22.0931 37.2813 16.0024 29.6861 16.0024Z" fill="url(#paint0_linear_56_3514)"/>
<path fill-rule="evenodd" clip-rule="evenodd" d="M29.686 1.59998C14.1387 1.59998 1.59998 14.1387 1.59998 29.686C1.59998 45.2334 14.1387 57.7721 29.686 57.7721C32.8854 57.7721 35.954 57.2335 38.8157 56.2541L35.2872 48.8001C33.508 49.3251 31.6309 49.6108 29.6858 49.6108C18.7196 49.6108 9.76129 40.6525 9.76129 29.6863C9.76129 18.7202 18.7196 9.76184 29.6858 9.76184C40.6519 9.76184 49.6103 18.7202 49.6103 29.6863C49.6103 31.6315 49.3246 33.5086 48.7995 35.2878L56.2535 38.8162C57.2329 35.9543 57.7716 32.8856 57.7716 29.6866C57.7716 14.1392 45.2356 1.60052 29.6855 1.60052L29.686 1.59998Z" fill="url(#paint1_linear_56_3514)"/>
<path fill-rule="evenodd" clip-rule="evenodd" d="M36.2505 36.2507L48.6367 62.4L50.9355 53.2021C51.2157 52.0867 52.0862 51.2134 53.2016 50.9332L62.3995 48.6344L36.2505 36.2507Z" fill="url(#paint2_linear_56_3514)"/>
<defs>
<linearGradient id="paint0_linear_56_3514" x1="18.5579" y1="42.4718" x2="47.8907" y2="36.9365" gradientUnits="userSpaceOnUse">
<stop offset="0.584025" stop-color="#CD0A45"/>
<stop offset="1" stop-color="#FD2B77"/>
</linearGradient>
<linearGradient id="paint1_linear_56_3514" x1="6.84514" y1="55.929" x2="67.0501" y2="44.568" gradientUnits="userSpaceOnUse">
<stop offset="0.584025" stop-color="#CD0A45"/>
<stop offset="1" stop-color="#FD2B77"/>
</linearGradient>
<linearGradient id="paint2_linear_56_3514" x1="38.6922" y1="61.542" x2="66.7189" y2="56.2532" gradientUnits="userSpaceOnUse">
<stop offset="0.584025" stop-color="#CD0A45"/>
<stop offset="1" stop-color="#FD2B77"/>
</linearGradient>
</defs>
</svg>
